<?xml version="1.0" encoding="UTF-8"?>
<svg id="Camada_1" xmlns="http://www.w3.org/2000/svg" version="1.1" viewBox="0 0 681 381.2">
  <!-- Generator: Adobe Illustrator 30.0.0, SVG Export Plug-In . SVG Version: 2.1.1 Build 123)  -->
  <defs>
    <style>
      .st0 {
        fill: none;
      }

      .st1 {
        fill: #1c6fb6;
      }

      .st2 {
        fill: #fff;
      }
    </style>
  </defs>
  <g>
    <rect class="st1" x="260.1" y="241.4" width="401.5" height="115.1" rx="57.6" ry="57.6"/>
    <path class="st1" d="M257.7,62c6.1,1.6,8.7,8.8,5,13.9-27.6,37.7-61,91.8-84.2,132.4-4.6,8.1-12.9,13.5-22.3,14.4-.1,0-.2,0-.3,0-10.5,1-20.6-3.7-26.6-12.4-12.6-18.3-26.4-35.7-41.3-52.2-5.5-6.1-5.2-15.5.9-21.1,0,0,.2-.2.3-.3,10.5-9.7,26.9-8.7,36.4,2,9.4,10.6,17.8,20.7,25.1,30.6,25.2-35.4,55-72.2,82.5-100.3,6.6-6.7,15.9-9.3,24.5-7.1Z"/>
    <g>
      <path class="st1" d="M395.6,133.9c0,25.1-6.8,48.1-19.5,65.5-13.4,18.3-31.9,27.7-54.5,27.7-37.1,0-61.5-27-61.5-68.1s4.9-39,13.4-55.2c13.1-24.4,34.8-38.3,60.1-38.3,37.6,0,62,27,62,68.3ZM304.7,118.7c-5.4,13.1-8.5,29.8-8.5,45.6,0,22.3,8.9,34,26.1,34s23-7.5,29.8-25.6c5.2-14.6,7.7-28.6,7.7-43,0-23.7-8.5-35.2-26.1-35.2s-22.5,7.7-29.1,24.2Z"/>
      <path class="st1" d="M485.1,98l-21.1,126.8h-35.9l21.1-126.8h-39.4l4.9-29.8h115.1l-5.2,29.8h-39.4Z"/>
      <path class="st1" d="M661.6,133.9c0,25.1-6.8,48.1-19.5,65.5-13.4,18.3-31.9,27.7-54.5,27.7-37.1,0-61.5-27-61.5-68.1s4.9-39,13.4-55.2c13.2-24.4,34.8-38.3,60.1-38.3,37.6,0,62,27,62,68.3ZM570.8,118.7c-5.4,13.1-8.5,29.8-8.5,45.6,0,22.3,8.9,34,26.1,34s23-7.5,29.8-25.6c5.2-14.6,7.7-28.6,7.7-43,0-23.7-8.5-35.2-26.1-35.2s-22.5,7.7-29.1,24.2Z"/>
    </g>
    <path class="st1" d="M160,275.7c-8.9,0-17.8-1-26.5-2.9-66.9-14.6-109.5-80.9-94.9-147.8,7.1-32.4,26.3-60.1,54.3-78,27.9-17.9,61.1-23.9,93.6-16.8,6.2,1.4,10.1,7.5,8.8,13.7s-7.5,10.1-13.7,8.8c-54.5-11.9-108.5,22.8-120.4,77.3-11.9,54.5,22.8,108.5,77.3,120.4,34.8,7.6,71.5-3.9,95.8-30.1,4.3-4.7,11.6-4.9,16.3-.6s4.9,11.6.6,16.3c-14.4,15.5-32.7,27.2-52.9,33.7-12.3,4-25.2,6-38.1,6Z"/>
    <g>
      <path class="st2" d="M335.3,290.3c-.1-8.6-3-16.5-12.9-16.5s-14,16.7-14,26,1.2,24.2,14.9,24.2,12.4-7.1,13.4-14.5l17.6,1.1c-1.9,17.7-14.1,28.1-31.8,28.1s-34.1-18.7-34.1-39.7,11.5-39.7,34.7-39.7,29.3,11.3,31.3,29.8l-18.9,1.2Z"/>
      <path class="st2" d="M385.1,275.3v15.6h29.3v14.5h-29.3v17.1h37.1v15h-55.1v-77.2h55.1v15h-37.1Z"/>
      <path class="st2" d="M451.9,337.6h-18v-77.2h32.5c6.9,0,13.8.1,19.8,3.9,6.3,4.2,9.8,11.7,9.8,19.2s-5.1,16.9-13.4,19.9l14.3,34.1h-20l-11.8-30.5h-13.2v30.5ZM451.9,293.8h9.9c3.7,0,7.8.3,11-1.6,2.9-1.8,4.5-5.4,4.5-8.8s-1.8-6.3-4.4-7.9c-3-1.9-8.2-1.5-11.6-1.5h-9.5v19.7Z"/>
      <path class="st2" d="M560.4,275.7h-19.4v61.9h-18v-61.9h-19.6v-15.3h56.9v15.3Z"/>
      <path class="st2" d="M575.7,326.5c-5.6-8-8.1-18-8.1-27.7,0-20.5,10.2-39.6,33.1-39.6s18.3,3.4,24.5,11.8c5.5,7.5,8.3,18.5,8.3,27.8s-2.4,19.5-7.3,26.8c-6,8.8-15.1,13.1-25.5,13.1s-18.9-3.6-25-12.2ZM588.9,282.8c-1.8,4.6-2.5,11.3-2.5,16.1,0,9.7,1.5,25.1,14.2,25.1s9.6-3,11.6-8.8c1.8-4.7,2.4-11.1,2.4-16.2s-.6-12.3-2.8-17.4c-2.3-5.2-5.5-7.5-11.1-7.5s-9.6,3.2-11.7,8.8Z"/>
    </g>
  </g>
  <rect class="st0" x="-72.2" y="-37.5" width="841.9" height="458.7"/>
</svg>